PathFileType	4	(X/Y/Z)	OpenSim_Sub07_EMGStiffKnee_Gyro.trc
DataRate	CameraRate	NumFrames	NumMarkers	Units	OrigDataRate	OrigDataStartFrame	OrigNumFrames
100	100	13	8	m	100	2771	7388
Frame#	Time	torso_imu_offset_imu	pelvis_imu_offset_imu	tibia_r_imu_offset_imu	femur_r_imu_offset_imu	tibia_l_imu_offset_imu	femur_l_imu_offset_imu	toes_r_imu_offset_imu	toes_l_imu_offset_imu
				X1	Y1	Z1	X2	Y2	Z2	X3	Y3	Z3	X4	Y4	Z4	X5	Y5	Z5	X6	Y6	Z6	X7	Y7	Z7	X8		Y8	Z8	

2771	27.70000000	-0.04286724	0.06967704	-0.00823361	0.17915905	-0.11386032	0.07668115	-1.48078888	1.40639467	2.98427997	-1.68751190	-0.15514505	-1.78483780	0.09582831	0.23970767	0.68720393	-0.33158214	-0.25357223	0.71606544	-0.63665503	3.59070535	-0.26539979	0.08630012	-0.20384831	0.13730655
2772	27.71000000	-0.06082721	0.04209556	0.01218386	0.19023451	-0.12941532	0.06968314	-0.59195120	1.39271780	2.68314027	-0.87824466	-0.06806246	-1.75222899	0.06130449	0.26667291	0.73981705	-0.31004741	-0.24277152	0.70293861	-0.23313880	3.49744711	0.15165328	0.07067784	-0.26696550	0.15119387
2773	27.72000000	-0.06817265	0.00696530	0.02782588	0.18351286	-0.15622911	0.06751364	0.23192787	1.37702491	2.29923266	-0.22832110	-0.04030333	-1.40365523	0.04476738	0.27441792	0.77812629	-0.33315102	-0.22954056	0.67640211	-0.04018143	3.31821417	0.65659171	0.03358151	-0.37441455	0.17753104
2774	27.73000000	-0.06464355	-0.04147293	0.04401421	0.16049204	-0.18415420	0.03467416	0.62789913	1.18964522	1.86653782	-0.30592982	-0.03135597	-0.91226782	0.05782654	0.28099232	0.84389328	-0.24901560	-0.19238915	0.63836392	-0.04482698	2.93623726	1.12440628	-0.00569737	-0.41211287	0.18852248
2775	27.74000000	-0.05323102	-0.10013641	0.05865065	0.14810807	-0.18575179	0.00936573	0.69421679	0.80429887	1.41461712	-0.69453710	0.02338805	-0.48640163	0.12136145	0.31483068	0.94457709	-0.05133816	-0.13487491	0.62311915	-0.12005045	2.40374847	1.48027472	0.02909543	-0.48228233	0.17554734
2776	27.75000000	-0.05453722	-0.15432237	0.07089059	0.15166328	-0.18017274	0.01362246	0.70265961	0.40948977	0.95158881	-0.66539857	0.10626455	-0.27806106	0.22077571	0.36566983	1.01830281	0.07929572	-0.09406600	0.60483055	-0.22650889	1.79660494	1.77140217	0.05379424	-0.60456276	0.14401865
2777	27.76000000	-0.06573614	-0.20846391	0.07322130	0.11687451	-0.15669715	-0.00195772	0.91780049	0.14790849	0.49008246	-0.32411465	0.09916527	-0.21560667	0.30934729	0.40704852	1.08613032	0.06623322	-0.07535302	0.57921222	0.65502395	0.21209750	1.84085799	0.07504582	-0.78012386	0.10494511
2778	27.77000000	-0.05784102	-0.26729018	0.06177844	0.03981411	-0.11620769	0.00632393	1.19434748	-0.14648982	0.06342684	0.12775184	-0.08243232	-0.16913732	0.34201605	0.44157296	1.17488673	0.08990882	-0.04431358	0.55234196	2.32251772	-2.20650477	1.49526403	0.09541997	-0.89148399	0.05993208
2779	27.78000000	-0.01058196	-0.30693376	0.05734255	0.00575085	-0.10260022	-0.00673883	1.33859346	-0.39579432	-0.52385169	0.23030453	-0.47236616	-0.05361724	0.30805636	0.48405390	1.28936924	0.15370908	0.01839993	0.47509216	1.91124822	-3.00972604	1.11255595	0.16577546	-1.03008696	0.02497003
2780	27.79000000	0.03154548	-0.31343591	0.05910721	0.03491332	-0.08369397	-0.03292088	2.12109051	-0.34781258	-1.33131537	-0.06238140	-1.03356516	0.07861500	0.25421188	0.52241761	1.37140878	0.13083273	0.07071652	0.39348681	0.65528395	-2.88939192	0.66525706	0.25283223	-1.19726287	-0.01142721
2781	27.80000000	0.04639724	-0.31880941	0.03952718	0.01949860	-0.04165370	-0.05565213	2.37819403	-0.72495339	-1.61162440	0.32931630	-1.57258750	-0.04278164	0.29699115	0.54510382	1.44777253	0.04262446	0.09522650	0.32820758	0.84715440	-2.73768895	0.07440868	0.29160007	-1.49688727	-0.03384064
2782	27.81000000	0.05775000	-0.33854897	-0.00140850	-0.04524207	-0.06503445	-0.05108098	0.21161322	-1.44603955	-1.21373644	1.27415515	-1.60965574	-0.37228312	0.34267713	0.57340020	1.51710795	-0.09981649	0.12159558	0.23314903	0.87193586	-2.74104804	-0.19484724	0.26850677	-1.82416880	-0.04934623
2783	27.82000000	0.10854087	-0.34835971	-0.02112522	-0.05695598	-0.15040239	-0.02061426	-0.97982165	-1.25209314	-0.81673243	1.51043635	-0.89302258	-0.52220944	0.34714621	0.59118201	1.62165406	-0.27392721	0.13840801	0.10869081	0.15328776	-3.33739948	0.12807188	0.27589967	-2.05327699	-0.00623631
